<svg width="181" height="155" viewBox="0 0 181 155" fill="none" xmlns="http://www.w3.org/2000/svg">
<path d="M46.1381 84.8654L91.7437 153.467L1.74724 154.259L46.1381 84.8654Z" fill="#4858C6"/>
<path d="M46.1381 84.8654L91.7437 153.467L1.74724 154.259L46.1381 84.8654Z" fill="#4858C6"/>
<path d="M46.1381 84.8654L91.7437 153.467L1.74724 154.259L46.1381 84.8654Z" fill="#3F4EBB"/>
<path d="M46.1381 84.8654L91.7437 153.467L1.74724 154.259L46.1381 84.8654Z" fill="#3F4EBB"/>
<path d="M46.1381 84.8654L91.7437 153.467L1.74724 154.259L46.1381 84.8654Z" fill="#3F4EBB"/>
<path d="M135 83.5L180.14 152.688L91.7437 153.467L135 83.5Z" fill="#4858C6"/>
<path d="M135 83.5L180.14 152.688L91.7437 153.467L135 83.5Z" fill="#4858C6"/>
<path d="M135 83.5L180.14 152.688L91.7437 153.467L135 83.5Z" fill="#3F4EBB"/>
<path d="M135 83.5L180.14 152.688L91.7437 153.467L135 83.5Z" fill="#3F4EBB"/>
<path d="M135 83.5L180.14 152.688L91.7437 153.467L135 83.5Z" fill="#8B74BC"/>
<path d="M91.6768 153.467L136 84L46.1375 84.791L91.6768 153.467Z" fill="#4858C6"/>
<path d="M91.6768 153.467L136 84L46.1375 84.791L91.6768 153.467Z" fill="#4858C6"/>
<path d="M91.6768 153.467L136 84L46.1375 84.791L91.6768 153.467Z" fill="#3E2D6F"/>
<path d="M136 84.7353L92.7196 2.39605L46.5 84.7353L136 84.7353Z" fill="#D9D9D9"/>
</svg>
