<svg width="220" height="294" viewBox="0 0 220 294" fill="none" xmlns="http://www.w3.org/2000/svg">
<path d="M51 293.5L96 224.5H6L51 293.5Z" fill="#4858C6"/>
<path d="M51 293.5L96 224.5H6L51 293.5Z" fill="#4858C6"/>
<path d="M51 293.5L96 224.5H6L51 293.5Z" fill="#3F4EBB"/>
<path d="M51 293.5L96 224.5H6L51 293.5Z" fill="#3F4EBB"/>
<path d="M51 293.5L96 224.5H6L51 293.5Z" fill="#3F4EBB"/>
<path d="M141 148L186.067 224.5H96L141 148Z" fill="#4858C6"/>
<path d="M141 148L186.067 224.5H96L141 148Z" fill="#4858C6"/>
<path d="M141 148L186.067 224.5H96L141 148Z" fill="#3F4EBB"/>
<path d="M141 148L186.067 224.5H96L141 148Z" fill="#3F4EBB"/>
<path d="M141 148L186.067 224.5H96L141 148Z" fill="#E5E1EE"/>
<path d="M141 293.5L186 224.5H96L141 293.5Z" fill="#4858C6"/>
<path d="M141 293.5L186 224.5H96L141 293.5Z" fill="#4858C6"/>
<path d="M141 293.5L186 224.5H96L141 293.5Z" fill="#3F4EBB"/>
<path d="M141 293.5L186 224.5H96L141 293.5Z" fill="#3F4EBB"/>
<path d="M141 293.5L186 224.5H96L141 293.5Z" fill="#8B74BC"/>
<path d="M96.0333 224.5L141.067 293.5H51L96.0333 224.5Z" fill="#4858C6"/>
<path d="M96.0333 224.5L141.067 293.5H51L96.0333 224.5Z" fill="#4858C6"/>
<path d="M96.0333 224.5L141.067 293.5H51L96.0333 224.5Z" fill="#3E2D6F"/>
<path d="M24.0069 114.709L106.371 113.219L58.5782 189.481L24.0069 114.709Z" fill="#4858C6"/>
<path d="M24.0069 114.709L106.371 113.219L58.5782 189.481L24.0069 114.709Z" fill="#4858C6"/>
<path d="M24.0069 114.709L106.371 113.219L58.5782 189.481L24.0069 114.709Z" fill="#3F4EBB"/>
<path d="M24.0069 114.709L106.371 113.219L58.5782 189.481L24.0069 114.709Z" fill="#3F4EBB"/>
<path d="M24.0069 114.709L106.371 113.219L58.5782 189.481L24.0069 114.709Z" fill="#3F4EBB"/>
<path d="M195.089 115.712L154.198 36.9008L106.371 113.219L195.089 115.712Z" fill="#4858C6"/>
<path d="M195.089 115.712L154.198 36.9008L106.371 113.219L195.089 115.712Z" fill="#4858C6"/>
<path d="M195.089 115.712L154.198 36.9008L106.371 113.219L195.089 115.712Z" fill="#3F4EBB"/>
<path d="M195.089 115.712L154.198 36.9008L106.371 113.219L195.089 115.712Z" fill="#3F4EBB"/>
<path d="M195.089 115.712L154.198 36.9008L106.371 113.219L195.089 115.712Z" fill="#E5E1EE"/>
<path d="M71.7993 38.4474L154.163 36.9573L106.371 113.219L71.7993 38.4474Z" fill="#4858C6"/>
<path d="M71.7993 38.4474L154.163 36.9573L106.371 113.219L71.7993 38.4474Z" fill="#4858C6"/>
<path d="M71.7993 38.4474L154.163 36.9573L106.371 113.219L71.7993 38.4474Z" fill="#3F4EBB"/>
<path d="M71.7993 38.4474L154.163 36.9573L106.371 113.219L71.7993 38.4474Z" fill="#3F4EBB"/>
<path d="M71.7993 38.4474L154.163 36.9573L106.371 113.219L71.7993 38.4474Z" fill="#8B74BC"/>
<path d="M106.388 113.191L71.8347 38.3909L24.0069 114.709L106.388 113.191Z" fill="#4858C6"/>
<path d="M106.388 113.191L71.8347 38.3909L24.0069 114.709L106.388 113.191Z" fill="#4858C6"/>
<path d="M106.388 113.191L71.8347 38.3909L24.0069 114.709L106.388 113.191Z" fill="#3E2D6F"/>
</svg>
