<svg width="152" height="146" viewBox="0 0 152 146" fill="none" xmlns="http://www.w3.org/2000/svg">
<path d="M118 73.5001L151.5 144.5L81 144.5L118 73.5001Z" fill="#4858C6"/>
<path d="M118 73.5001L151.5 144.5L81 144.5L118 73.5001Z" fill="#4858C6"/>
<path d="M118 73.5001L151.5 144.5L81 144.5L118 73.5001Z" fill="#3F4EBB"/>
<path d="M118 73.5001L151.5 144.5L81 144.5L118 73.5001Z" fill="#3F4EBB"/>
<path d="M118 73.5001L151.5 144.5L81 144.5L118 73.5001Z" fill="#3F4EBB"/>
<path d="M81.0648 144.667L117.995 73.6897L39.6215 73.6991L81.0648 144.667Z" fill="#4858C6"/>
<path d="M81.0648 144.667L117.995 73.6897L39.6215 73.6991L81.0648 144.667Z" fill="#4858C6"/>
<path d="M81.0648 144.667L117.995 73.6897L39.6215 73.6991L81.0648 144.667Z" fill="#3F4EBB"/>
<path d="M81.0648 144.667L117.995 73.6897L39.6215 73.6991L81.0648 144.667Z" fill="#3F4EBB"/>
<path d="M81.0648 144.667L117.995 73.6897L39.6215 73.6991L81.0648 144.667Z" fill="#8B74BC"/>
<path d="M39.5 73.5002L81 144.5L1.5 144.5L39.5 73.5002Z" fill="#4858C6"/>
<path d="M39.5 73.5002L81 144.5L1.5 144.5L39.5 73.5002Z" fill="#4858C6"/>
<path d="M39.5 73.5002L81 144.5L1.5 144.5L39.5 73.5002Z" fill="#3E2D6F"/>
<path d="M117.974 72.3114L80.5141 1.35023L39.6007 72.2928L117.974 72.3114Z" fill="#D9D9D9"/>
</svg>
